<svg width="16" height="20" viewBox="0 0 16 20" fill="none" xmlns="http://www.w3.org/2000/svg">
<path fill-rule="evenodd" clip-rule="evenodd" d="M5.70837 0.301636H10.2917C13.3293 0.301636 15.7917 2.76407 15.7917 5.80164V14.0516C15.7917 17.0892 13.3293 19.5516 10.2917 19.5516H5.70837C2.67081 19.5516 0.208374 17.0892 0.208374 14.0516V5.80164C0.208374 2.76407 2.67081 0.301636 5.70837 0.301636ZM10.2917 17.865C12.3978 17.865 14.105 16.1577 14.105 14.0516V5.80164C14.105 3.69559 12.3978 1.9883 10.2917 1.9883H5.70837C3.60233 1.9883 1.89504 3.69559 1.89504 5.80164V14.0516C1.89504 16.1577 3.60233 17.865 5.70837 17.865H10.2917Z" fill="currentColor"/>
<path d="M10.8692 4.26164C9.2956 5.31097 7.24532 5.31097 5.67171 4.26164C5.44947 4.09049 5.15044 4.05732 4.8961 4.1756C4.64176 4.29388 4.47444 4.54394 4.46213 4.82417C4.44981 5.1044 4.59456 5.36817 4.83754 5.5083C5.85124 6.18924 7.0447 6.55302 8.26587 6.5533C9.47743 6.54596 10.6601 6.18255 11.6667 5.5083C11.9097 5.36817 12.0544 5.1044 12.0421 4.82417C12.0298 4.54394 11.8625 4.29388 11.6082 4.1756C11.3538 4.05732 11.0548 4.09049 10.8325 4.26164H10.8692Z" fill="currentColor"/>
</svg>
