<svg width="15" height="21" viewBox="0 0 17 21" fill="none" xmlns="http://www.w3.org/2000/svg">
<rect x="1" y="4" width="15" height="3" rx="1" stroke="currentColor" stroke-width="2"/>
<path d="M3 7H14V18C14 18.5523 13.5523 19 13 19H4C3.44772 19 3 18.5523 3 18V7Z" stroke="currentColor" stroke-width="2"/>
<mask id="path-3-inside-1_2284_101939" fill="currentColor">
<path d="M5.5 17.243C5.77619 17.243 6 17.0297 6 16.7666V11.4266C6 11.1634 5.77619 10.9502 5.5 10.9502C5.22381 10.9502 5 11.1634 5 11.4266V16.7666C5 17.0297 5.22381 17.243 5.5 17.243Z"/>
</mask>
<path d="M5.5 19.243C6.78846 19.243 8 18.2244 8 16.7666H4C4 15.8351 4.76392 15.243 5.5 15.243V19.243ZM8 16.7666V11.4266H4V16.7666H8ZM8 11.4266C8 9.96877 6.78846 8.9502 5.5 8.9502V12.9502C4.76392 12.9502 4 12.3581 4 11.4266H8ZM5.5 8.9502C4.21154 8.9502 3 9.96877 3 11.4266H7C7 12.3581 6.23608 12.9502 5.5 12.9502V8.9502ZM3 11.4266V16.7666H7V11.4266H3ZM3 16.7666C3 18.2244 4.21154 19.243 5.5 19.243V15.243C6.23608 15.243 7 15.8351 7 16.7666H3Z" fill="currentColor" mask="url(#path-3-inside-1_2284_101939)"/>
<mask id="path-5-inside-2_2284_101939" fill="currentColor">
<path d="M8.5 17.243C8.77619 17.243 9 17.0297 9 16.7666V11.4266C9 11.1634 8.77619 10.9502 8.5 10.9502C8.22381 10.9502 8 11.1634 8 11.4266V16.7666C8.00476 17.0297 8.22857 17.243 8.5 17.243Z"/>
</mask>
<path d="M8 16.7666H6V16.7847L6.00033 16.8028L8 16.7666ZM8.5 19.243C9.78846 19.243 11 18.2244 11 16.7666H7C7 15.8351 7.76392 15.243 8.5 15.243V19.243ZM11 16.7666V11.4266H7V16.7666H11ZM11 11.4266C11 9.96877 9.78846 8.9502 8.5 8.9502V12.9502C7.76392 12.9502 7 12.3581 7 11.4266H11ZM8.5 8.9502C7.21154 8.9502 6 9.96877 6 11.4266H10C10 12.3581 9.23608 12.9502 8.5 12.9502V8.9502ZM6 11.4266V16.7666H10V11.4266H6ZM6.00033 16.8028C6.02583 18.2123 7.19512 19.243 8.5 19.243V15.243C9.26203 15.243 9.98369 15.8471 9.99967 16.7304L6.00033 16.8028Z" fill="currentColor" mask="url(#path-5-inside-2_2284_101939)"/>
<mask id="path-7-inside-3_2284_101939" fill="currentColor">
<path d="M11.5 17.243C11.7762 17.243 12 17.0297 12 16.7666V11.4266C12 11.1634 11.7762 10.9502 11.5 10.9502C11.2238 10.9502 11 11.1634 11 11.4266V16.7666C11 17.0297 11.2238 17.243 11.5 17.243Z"/>
</mask>
<path d="M11.5 19.243C12.7885 19.243 14 18.2244 14 16.7666H10C10 15.8351 10.7639 15.243 11.5 15.243V19.243ZM14 16.7666V11.4266H10V16.7666H14ZM14 11.4266C14 9.96877 12.7885 8.9502 11.5 8.9502V12.9502C10.7639 12.9502 10 12.3581 10 11.4266H14ZM11.5 8.9502C10.2115 8.9502 9 9.96877 9 11.4266H13C13 12.3581 12.2361 12.9502 11.5 12.9502V8.9502ZM9 11.4266V16.7666H13V11.4266H9ZM9 16.7666C9 18.2244 10.2115 19.243 11.5 19.243V15.243C12.2361 15.243 13 15.8351 13 16.7666H9Z" fill="currentColor" mask="url(#path-7-inside-3_2284_101939)"/>
<path d="M12 4C12 3.60603 11.9095 3.21593 11.7336 2.85195C11.5577 2.48797 11.2999 2.15726 10.9749 1.87868C10.6499 1.6001 10.264 1.37913 9.83939 1.22836C9.41475 1.0776 8.95963 1 8.5 1C8.04037 1 7.58525 1.0776 7.16061 1.22836C6.73597 1.37913 6.35013 1.6001 6.02513 1.87868C5.70012 2.15726 5.44231 2.48797 5.26642 2.85195C5.09053 3.21593 5 3.60603 5 4L8.5 4H12Z" stroke="currentColor" stroke-width="2"/>
</svg>
