<svg width="20" height="20" viewBox="0 0 20 20" fill="none" xmlns="http://www.w3.org/2000/svg">
<path fill-rule="evenodd" clip-rule="evenodd" d="M18.7176 1.365C18.2031 0.854732 17.508 0.568134 16.7834 0.567505C16.1557 0.569546 15.5476 0.786268 15.0601 1.18167L6.47092 8.16667L6.33342 8.30417C5.13629 9.49105 4.87071 11.3276 5.68259 12.805C5.34951 12.7034 5.00408 12.6479 4.65592 12.64C2.63088 12.64 0.989258 14.2816 0.989258 16.3067V18.5983C0.989258 19.3577 1.60487 19.9733 2.36426 19.9733H4.65592C5.92882 19.9664 7.10701 19.2997 7.7685 18.2122C8.42999 17.1246 8.48012 15.7718 7.90092 14.6383C8.26729 14.762 8.65092 14.827 9.03759 14.8308C10.0528 14.8377 11.0279 14.4344 11.7418 13.7125L11.8334 13.6117L18.8643 5.02251C19.7517 3.94314 19.6886 2.36984 18.7176 1.365ZM4.69259 18.5983H2.40092V16.3067C2.40092 15.041 3.42694 14.015 4.69259 14.015C5.95824 14.015 6.98426 15.041 6.98426 16.3067C6.98426 17.5723 5.95824 18.5983 4.69259 18.5983ZM10.8068 12.75L17.8376 4.15167C18.2686 3.61184 18.2251 2.83438 17.7367 2.34593C17.2482 1.85749 16.4708 1.81403 15.9309 2.24501L7.34176 9.27584C6.38239 10.2327 6.38034 11.7861 7.33717 12.7454C8.29401 13.7048 9.84739 13.7068 10.8068 12.75Z" fill="currentColor"/>
<path d="M11.1001 8.01084L8.35009 10.7608C8.08201 11.0293 8.08201 11.4641 8.35009 11.7325C8.61851 12.0006 9.05334 12.0006 9.32176 11.7325L12.0718 8.98251C12.2557 8.81112 12.3314 8.553 12.2692 8.30941C12.207 8.06582 12.0168 7.87561 11.7732 7.8134C11.5296 7.75119 11.2715 7.82691 11.1001 8.01084Z" fill="currentColor"/>
</svg>
