<svg width="15" height="17" viewBox="0 0 15 17" fill="none" xmlns="http://www.w3.org/2000/svg">
<path fill-rule="evenodd" clip-rule="evenodd" d="M2.18792 9.50542H5.35459C6.35286 9.48775 7.17753 10.2806 7.19917 11.2788V14.4454C7.19483 15.4449 6.3857 16.254 5.38625 16.2583H2.21959C1.22135 16.2716 0.40027 15.4753 0.382919 14.4771V11.3104C0.382919 10.3135 1.19105 9.50542 2.18792 9.50542ZM5.35459 15.0708C5.69999 15.0708 5.98 14.7908 5.98 14.4454V11.2788C5.98002 11.1136 5.91387 10.9553 5.79635 10.8393C5.67883 10.7233 5.51972 10.6591 5.35459 10.6613H2.18792C2.02415 10.6613 1.86708 10.7263 1.75128 10.8421C1.63548 10.9579 1.57042 11.115 1.57042 11.2788V14.4454C1.57039 14.7878 1.84561 15.0665 2.18792 15.0708H5.35459Z" fill="#888888"/>
<path d="M4.38084 12.2842V11.8329C4.38084 11.505 4.11501 11.2392 3.78709 11.2392C3.45917 11.2392 3.19334 11.505 3.19334 11.8329V12.2842H2.75C2.42208 12.2842 2.15625 12.55 2.15625 12.8779C2.15625 13.2058 2.42208 13.4717 2.75 13.4717H3.20125V13.9308C3.20125 14.2588 3.46708 14.5246 3.795 14.5246C4.12292 14.5246 4.38875 14.2588 4.38875 13.9308V13.4717H4.84792C5.17584 13.4717 5.44167 13.2058 5.44167 12.8779C5.44167 12.55 5.17584 12.2842 4.84792 12.2842H4.38084Z" fill="#888888"/>
<path fill-rule="evenodd" clip-rule="evenodd" d="M8.33125 0.923755L13.8729 6.46542C13.9907 6.58538 14.0537 6.74867 14.0471 6.91667V12.4583C14.0471 14.5352 12.3635 16.2188 10.2867 16.2188H8.01459C7.68667 16.2188 7.42084 15.9529 7.42084 15.625C7.42084 15.2971 7.68667 15.0313 8.01459 15.0313H10.2867C11.7077 15.0313 12.8596 13.8793 12.8596 12.4583V7.51042H9.495C8.29263 7.51042 7.31792 6.53571 7.31792 5.33334V1.96084H5.53667C4.11441 1.9652 2.96375 3.1194 2.96375 4.54167V8.5C2.96375 8.82792 2.69792 9.09375 2.37 9.09375C2.04208 9.09375 1.77625 8.82792 1.77625 8.5V4.54167C1.76781 3.53887 2.16026 2.57424 2.86639 1.86216C3.57253 1.15008 4.53383 0.749552 5.53667 0.749588H7.91167C8.06909 0.749727 8.22001 0.812373 8.33125 0.923755ZM8.50542 2.77625V5.33334C8.50977 5.87678 8.95155 6.31502 9.495 6.315H12.0442L8.50542 2.77625Z" fill="#888888"/>
</svg>
