<svg width="178" height="193" viewBox="0 0 178 193" fill="none" xmlns="http://www.w3.org/2000/svg">
<path fill-rule="evenodd" clip-rule="evenodd" d="M175.254 71.2791L106.713 2.73748C105.337 1.35987 103.47 0.585027 101.523 0.583313H72.1479C59.7615 0.583066 47.8867 5.52356 39.1558 14.3096C30.4249 23.0956 25.5593 35.0013 25.6375 47.3875V82.8333C25.6375 86.8892 28.9254 90.1771 32.9812 90.1771C37.0371 90.1771 40.325 86.8892 40.325 82.8333V47.3875C40.325 29.8122 54.5726 15.5646 72.1479 15.5646H94.1792V57.1791C94.2329 72.0283 106.257 84.0525 121.106 84.1062H162.721V145.304C162.667 162.857 148.451 177.073 130.898 177.127H100.935C96.8796 177.127 93.5917 180.415 93.5917 184.471C93.5917 188.527 96.8796 191.815 100.935 191.815H130.898C156.585 191.815 177.408 170.991 177.408 145.304V76.7625C177.487 74.7142 176.706 72.7262 175.254 71.2791ZM108.867 57.1791V25.65L152.635 69.4187H121.106C114.347 69.4187 108.867 63.9389 108.867 57.1791Z" fill="black"/>
<path d="M51.1937 117.3C49.238 117.273 47.3546 118.039 45.9716 119.422C44.5886 120.805 43.8234 122.688 43.85 124.644V142.269L36.0167 150.592C34.617 151.956 33.8275 153.827 33.8275 155.781C33.8275 157.736 34.617 159.607 36.0167 160.971C37.3926 162.348 39.2592 163.123 41.2062 163.125C42.9391 162.946 44.5606 162.187 45.8083 160.971L56.1875 150.592C57.5474 149.204 58.3191 147.345 58.3417 145.402V124.644C58.3431 120.663 55.1729 117.406 51.1937 117.3Z" fill="black"/>
<path fill-rule="evenodd" clip-rule="evenodd" d="M0.375 143.052C0.375 116.013 22.2944 94.0937 49.3333 94.0937C62.3179 94.0937 74.7706 99.2518 83.9521 108.433C93.1336 117.615 98.2917 130.068 98.2917 143.052C98.2917 170.091 76.3723 192.01 49.3333 192.01C22.2944 192.01 0.375 170.091 0.375 143.052ZM15.7649 157.017C21.4658 170.468 34.7246 179.146 49.3333 178.988C69.0809 178.773 84.9762 162.703 84.975 142.954C84.9741 128.345 76.1519 115.181 62.639 109.628C49.1262 104.074 33.5973 107.23 23.3234 117.616C13.0495 128.003 10.064 143.566 15.7649 157.017Z" fill="black"/>
</svg>
